<?xml version="1.0" standalone="no"?>
<!DOCTYPE svg PUBLIC "-//W3C//DTD SVG 20010904//EN"
 "http://www.w3.org/TR/2001/REC-SVG-20010904/DTD/svg10.dtd">
<svg version="1.0" xmlns="http://www.w3.org/2000/svg"
 width="512.000000pt" height="512.000000pt" viewBox="0 0 512.000000 512.000000"
 preserveAspectRatio="xMidYMid meet">
<metadata>
Created by potrace 1.14, written by Peter Selinger 2001-2017
</metadata>
<g transform="translate(0.000000,512.000000) scale(0.100000,-0.100000)"
fill="#000000" stroke="none">
<path d="M3249 5112 c-132 -43 -369 -200 -484 -322 -27 -29 -58 -62 -68 -72
-18 -19 -20 -17 -87 84 -79 121 -110 155 -159 176 -80 35 -194 12 -247 -50
-40 -47 -124 -159 -135 -181 -7 -12 -15 -24 -19 -27 -19 -14 -123 -247 -144
-325 -34 -119 -40 -169 -41 -297 0 -58 -3 -104 -6 -102 -4 2 -73 97 -155 211
-179 253 -188 263 -230 263 -43 0 -78 -42 -70 -83 6 -28 100 -167 236 -347 46
-61 91 -130 85 -130 -3 0 -45 13 -93 29 -48 16 -118 35 -156 41 -116 21 -317
16 -436 -11 -25 -6 -56 -12 -71 -14 -32 -4 -205 -63 -243 -82 -83 -43 -133
-161 -104 -247 14 -41 87 -149 142 -211 42 -47 49 -65 24 -65 -6 0 -45 -16
-87 -36 -130 -62 -266 -160 -381 -273 -95 -94 -108 -111 -116 -151 -25 -138
22 -209 199 -298 113 -57 149 -63 183 -31 21 20 23 20 75 4 67 -20 84 -29 85
-44 1 -6 2 -18 3 -26 2 -21 40 -43 86 -50 22 -4 48 -8 57 -11 26 -8 233 -7
257 1 25 8 26 2 6 -84 -23 -95 -29 -170 -27 -319 1 -151 11 -182 58 -196 31
-9 42 -33 60 -135 2 -8 -8 -26 -22 -39 -32 -33 -31 -56 12 -161 105 -262 299
-506 539 -677 371 -265 984 -558 1430 -684 186 -52 422 -104 535 -117 25 -3
72 -8 105 -13 80 -10 249 -5 305 9 241 63 438 222 532 431 53 117 151 452 172
590 9 53 16 92 21 118 7 31 22 149 31 242 3 41 8 77 9 78 10 11 -21 65 -41 72
-22 9 -24 15 -24 85 0 69 2 76 23 84 54 21 57 40 43 286 -4 77 -9 156 -11 175
-7 75 -16 156 -20 180 -3 14 -7 43 -10 65 -3 22 -9 54 -12 70 -3 17 -8 40 -9
53 -21 131 -74 358 -109 467 -14 44 -48 125 -74 180 -134 280 -359 523 -631
677 -79 45 -232 106 -331 132 -92 24 -113 27 -224 41 -27 3 -51 7 -52 9 -1 1
3 13 10 26 46 90 97 263 97 332 0 29 -7 42 -32 63 -30 26 -32 31 -33 96 0 66
1 69 28 78 15 6 32 22 38 38 9 24 5 119 -6 163 -2 8 -7 31 -10 50 -12 74 -26
107 -59 146 -49 57 -149 87 -217 66z"/>
</g>
</svg>
